<svg width="600" height="200" viewBox="0 0 600 200" xmlns="http://www.w3.org/2000/svg">
  <defs>
    <marker id="arrow2" markerWidth="8" markerHeight="8" refX="7" refY="3" orient="auto" markerUnits="strokeWidth">
      <path d="M0,0 L0,6 L8,3 z" fill="#666"/>
    </marker>
  </defs>
  <!-- Traditional Allocation -->
  <rect x="20" y="20" width="260" height="160" rx="8" fill="#fce4ec" stroke="#e91e63" stroke-width="2"/>
  <text x="150" y="45" text-anchor="middle" font-family="sans-serif" font-size="13" font-weight="bold" fill="#880e4f">Traditional Allocation</text>
  <rect x="40" y="65" width="30" height="25" rx="3" fill="#fff" stroke="#e91e63"/>
  <text x="55" y="82" text-anchor="middle" font-family="sans-serif" font-size="11" fill="#333">A</text>
  <rect x="40" y="100" width="30" height="25" rx="3" fill="#fff" stroke="#e91e63"/>
  <text x="55" y="117" text-anchor="middle" font-family="sans-serif" font-size="11" fill="#333">B</text>
  <rect x="40" y="135" width="30" height="25" rx="3" fill="#fff" stroke="#e91e63"/>
  <text x="55" y="152" text-anchor="middle" font-family="sans-serif" font-size="11" fill="#333">C</text>
  <line x1="70" y1="77" x2="120" y2="77" stroke="#666" stroke-width="1.5" marker-end="url(#arrow2)"/>
  <line x1="70" y1="112" x2="160" y2="112" stroke="#666" stroke-width="1.5" marker-end="url(#arrow2)"/>
  <line x1="70" y1="147" x2="200" y2="147" stroke="#666" stroke-width="1.5" marker-end="url(#arrow2)"/>
  <rect x="130" y="65" width="50" height="25" rx="3" fill="#ffcdd2" stroke="#e91e63"/>
  <text x="155" y="82" text-anchor="middle" font-family="sans-serif" font-size="10" fill="#333">Heap</text>
  <rect x="170" y="100" width="50" height="25" rx="3" fill="#ffcdd2" stroke="#e91e63"/>
  <text x="195" y="117" text-anchor="middle" font-family="sans-serif" font-size="10" fill="#333">Heap</text>
  <rect x="210" y="135" width="50" height="25" rx="3" fill="#ffcdd2" stroke="#e91e63"/>
  <text x="235" y="152" text-anchor="middle" font-family="sans-serif" font-size="10" fill="#333">Heap</text>
  <!-- Arena Allocation -->
  <rect x="320" y="20" width="260" height="160" rx="8" fill="#e8f5e9" stroke="#4caf50" stroke-width="2"/>
  <text x="450" y="45" text-anchor="middle" font-family="sans-serif" font-size="13" font-weight="bold" fill="#1b5e20">Arena Allocation</text>
  <rect x="340" y="65" width="30" height="25" rx="3" fill="#fff" stroke="#4caf50"/>
  <text x="355" y="82" text-anchor="middle" font-family="sans-serif" font-size="11" fill="#333">A</text>
  <rect x="340" y="100" width="30" height="25" rx="3" fill="#fff" stroke="#4caf50"/>
  <text x="355" y="117" text-anchor="middle" font-family="sans-serif" font-size="11" fill="#333">B</text>
  <rect x="340" y="135" width="30" height="25" rx="3" fill="#fff" stroke="#4caf50"/>
  <text x="355" y="152" text-anchor="middle" font-family="sans-serif" font-size="11" fill="#333">C</text>
  <line x1="370" y1="77" x2="410" y2="100" stroke="#666" stroke-width="1.5" marker-end="url(#arrow2)"/>
  <line x1="370" y1="112" x2="410" y2="112" stroke="#666" stroke-width="1.5" marker-end="url(#arrow2)"/>
  <line x1="370" y1="147" x2="410" y2="124" stroke="#666" stroke-width="1.5" marker-end="url(#arrow2)"/>
  <rect x="420" y="70" width="140" height="80" rx="4" fill="#c8e6c9" stroke="#4caf50" stroke-width="2"/>
  <text x="490" y="115" text-anchor="middle" font-family="sans-serif" font-size="11" fill="#1b5e20">Contiguous Memory</text>
</svg>
