<svg width="600" height="500" viewBox="0 0 600 500" xmlns="http://www.w3.org/2000/svg">
  <defs>
    <marker id="arrow" markerWidth="10" markerHeight="10" refX="9" refY="3" orient="auto" markerUnits="strokeWidth">
      <path d="M0,0 L0,6 L9,3 z" fill="#666"/>
    </marker>
  </defs>
  <!-- User Applications -->
  <rect x="40" y="20" width="520" height="80" rx="8" fill="#e8f4f8" stroke="#5ba3c0" stroke-width="2"/>
  <text x="300" y="45" text-anchor="middle" font-family="sans-serif" font-size="14" font-weight="bold" fill="#2c7a9c">User Applications</text>
  <rect x="60" y="55" width="100" height="35" rx="4" fill="#fff" stroke="#5ba3c0"/>
  <text x="110" y="78" text-anchor="middle" font-family="sans-serif" font-size="12" fill="#333">Your App</text>
  <rect x="180" y="55" width="140" height="35" rx="4" fill="#fff" stroke="#5ba3c0"/>
  <text x="250" y="78" text-anchor="middle" font-family="sans-serif" font-size="12" fill="#333">Documentation Site</text>
  <rect x="340" y="55" width="100" height="35" rx="4" fill="#fff" stroke="#5ba3c0"/>
  <text x="390" y="78" text-anchor="middle" font-family="sans-serif" font-size="12" fill="#333">Blog</text>
  <!-- JavaScript Packages -->
  <rect x="40" y="130" width="520" height="80" rx="8" fill="#f0e8f8" stroke="#9b59b6" stroke-width="2"/>
  <text x="300" y="155" text-anchor="middle" font-family="sans-serif" font-size="14" font-weight="bold" fill="#7d3c98">JavaScript Packages</text>
  <rect x="60" y="165" width="160" height="35" rx="4" fill="#fff" stroke="#9b59b6"/>
  <text x="140" y="188" text-anchor="middle" font-family="sans-serif" font-size="11" fill="#333">vite-plugin-ox-content</text>
  <rect x="240" y="165" width="180" height="35" rx="4" fill="#fff" stroke="#9b59b6"/>
  <text x="330" y="188" text-anchor="middle" font-family="sans-serif" font-size="11" fill="#333">vite-plugin-ox-content-vue</text>
  <rect x="440" y="165" width="100" height="35" rx="4" fill="#fff" stroke="#9b59b6"/>
  <text x="490" y="188" text-anchor="middle" font-family="sans-serif" font-size="11" fill="#333">...-react</text>
  <!-- NAPI -->
  <rect x="40" y="240" width="520" height="60" rx="8" fill="#fef9e7" stroke="#f39c12" stroke-width="2"/>
  <text x="300" y="265" text-anchor="middle" font-family="sans-serif" font-size="14" font-weight="bold" fill="#b7950b">Node.js Bindings</text>
  <rect x="200" y="275" width="200" height="20" rx="4" fill="#fff" stroke="#f39c12"/>
  <text x="300" y="290" text-anchor="middle" font-family="sans-serif" font-size="11" fill="#333">@ox-content/napi</text>
  <!-- Rust Core -->
  <rect x="40" y="330" width="520" height="130" rx="8" fill="#fdebd0" stroke="#e67e22" stroke-width="2"/>
  <text x="300" y="355" text-anchor="middle" font-family="sans-serif" font-size="14" font-weight="bold" fill="#ca6f1e">Rust Core</text>
  <rect x="60" y="370" width="140" height="35" rx="4" fill="#fff" stroke="#e67e22"/>
  <text x="130" y="393" text-anchor="middle" font-family="sans-serif" font-size="11" fill="#333">ox_content_renderer</text>
  <rect x="220" y="370" width="140" height="35" rx="4" fill="#fff" stroke="#e67e22"/>
  <text x="290" y="393" text-anchor="middle" font-family="sans-serif" font-size="11" fill="#333">ox_content_parser</text>
  <rect x="150" y="420" width="130" height="30" rx="4" fill="#fff" stroke="#e67e22"/>
  <text x="215" y="440" text-anchor="middle" font-family="sans-serif" font-size="11" fill="#333">ox_content_ast</text>
  <rect x="300" y="420" width="150" height="30" rx="4" fill="#fff" stroke="#e67e22"/>
  <text x="375" y="440" text-anchor="middle" font-family="sans-serif" font-size="11" fill="#333">ox_content_allocator</text>
  <!-- Arrows -->
  <line x1="300" y1="100" x2="300" y2="125" stroke="#666" stroke-width="2" marker-end="url(#arrow)"/>
  <line x1="300" y1="210" x2="300" y2="235" stroke="#666" stroke-width="2" marker-end="url(#arrow)"/>
  <line x1="300" y1="300" x2="300" y2="325" stroke="#666" stroke-width="2" marker-end="url(#arrow)"/>
  <line x1="130" y1="405" x2="180" y2="420" stroke="#666" stroke-width="1.5" marker-end="url(#arrow)"/>
  <line x1="290" y1="405" x2="240" y2="420" stroke="#666" stroke-width="1.5" marker-end="url(#arrow)"/>
  <line x1="280" y1="435" x2="300" y2="435" stroke="#666" stroke-width="1.5" marker-end="url(#arrow)"/>
</svg>
