<svg xmlns="http://www.w3.org/2000/svg" viewBox="0 0 650 250">
  <defs>
    <linearGradient id="oxGrad" x1="0%" y1="0%" x2="100%" y2="0%">
      <stop offset="0%" style="stop-color:#7a5cff"/>
      <stop offset="100%" style="stop-color:#4acdff"/>
    </linearGradient>
    <linearGradient id="grayGrad" x1="0%" y1="0%" x2="100%" y2="0%">
      <stop offset="0%" style="stop-color:#4f607b"/>
      <stop offset="100%" style="stop-color:#8190b0"/>
    </linearGradient>
  </defs>

  <style>
    .title { font: bold 14px IBM Plex Sans, system-ui, sans-serif; fill: #131a30; }
    .label { font: 12px IBM Plex Sans, system-ui, sans-serif; fill: #4f607b; }
    .value { font: bold 11px IBM Plex Sans, system-ui, sans-serif; fill: #131a30; }
    .unit { font: 10px IBM Plex Sans, system-ui, sans-serif; fill: #8190b0; }
    .ratio { font: bold 10px IBM Plex Sans, system-ui, sans-serif; fill: #364462; }
  </style>

  <!-- Background -->
  <rect width="650" height="250" fill="#f5f7fb" rx="8"/>

  <!-- Title -->
  <text x="325" y="24" text-anchor="middle" class="title">Parse Speed (Large 48.7KB)</text>

  <!-- ox-content: 2,607 ops/s = 1.00x -->
  <text x="120" y="58" text-anchor="end" class="label">@ox-content/napi</text>
  <rect x="130" y="45" width="400" height="20" rx="4" fill="url(#oxGrad)"/>
  <text x="500" y="58" class="ratio" fill="#fff">1.00x</text>
  <text x="540" y="58" class="value">2,607</text>
  <text x="585" y="58" class="unit">ops/s</text>

  <!-- md4x (napi): 856 ops/s = 3.05x -->
  <text x="120" y="88" text-anchor="end" class="label">md4x (napi)</text>
  <rect x="130" y="75" width="131" height="20" rx="4" fill="url(#grayGrad)"/>
  <text x="268" y="88" class="value">856</text>
  <text x="300" y="88" class="unit">ops/s</text>
  <text x="350" y="88" class="ratio">3.05x</text>

  <!-- md4w (md4c): 782 ops/s = 3.33x -->
  <text x="120" y="118" text-anchor="end" class="label">md4w (md4c)</text>
  <rect x="130" y="105" width="120" height="20" rx="4" fill="url(#grayGrad)"/>
  <text x="257" y="118" class="value">782</text>
  <text x="289" y="118" class="unit">ops/s</text>
  <text x="339" y="118" class="ratio">3.33x</text>

  <!-- markdown-it: 629 ops/s = 4.15x -->
  <text x="120" y="148" text-anchor="end" class="label">markdown-it</text>
  <rect x="130" y="135" width="97" height="20" rx="4" fill="url(#grayGrad)"/>
  <text x="234" y="148" class="value">629</text>
  <text x="266" y="148" class="unit">ops/s</text>
  <text x="316" y="148" class="ratio">4.15x</text>

  <!-- marked: 336 ops/s = 7.76x -->
  <text x="120" y="178" text-anchor="end" class="label">marked</text>
  <rect x="130" y="165" width="52" height="20" rx="4" fill="url(#grayGrad)"/>
  <text x="189" y="178" class="value">336</text>
  <text x="221" y="178" class="unit">ops/s</text>
  <text x="271" y="178" class="ratio">7.76x</text>

  <!-- remark: 28 ops/s = 93.11x -->
  <text x="120" y="208" text-anchor="end" class="label">remark</text>
  <rect x="130" y="195" width="4" height="20" rx="2" fill="url(#grayGrad)"/>
  <text x="142" y="208" class="value">28</text>
  <text x="162" y="208" class="unit">ops/s</text>
  <text x="207" y="208" class="ratio">93.11x</text>

  <!-- Footer -->
  <text x="325" y="240" text-anchor="middle" class="unit">Higher is better. Ratio shows how much slower vs ox-content.</text>
</svg>
