<svg xmlns="http://www.w3.org/2000/svg" viewBox="0 0 600 220">
  <defs>
    <linearGradient id="oxGrad" x1="0%" y1="0%" x2="100%" y2="0%">
      <stop offset="0%" style="stop-color:#ff6b35"/>
      <stop offset="100%" style="stop-color:#f7931a"/>
    </linearGradient>
    <linearGradient id="grayGrad" x1="0%" y1="0%" x2="100%" y2="0%">
      <stop offset="0%" style="stop-color:#4a5568"/>
      <stop offset="100%" style="stop-color:#718096"/>
    </linearGradient>
  </defs>

  <style>
    .title { font: bold 14px system-ui, sans-serif; fill: #1a202c; }
    .label { font: 12px system-ui, sans-serif; fill: #4a5568; }
    .value { font: bold 11px system-ui, sans-serif; fill: #1a202c; }
    .unit { font: 10px system-ui, sans-serif; fill: #718096; }
  </style>

  <!-- Title -->
  <text x="300" y="24" text-anchor="middle" class="title">Parse + Render Speed (Large 48.7KB)</text>

  <!-- Bars - ox-content: 2,248 ops/s = 100% (width 400) -->
  <text x="120" y="58" text-anchor="end" class="label">@ox-content/napi</text>
  <rect x="130" y="45" width="400" height="20" rx="4" fill="url(#oxGrad)"/>
  <text x="540" y="58" class="value">2,248</text>
  <text x="580" y="58" class="unit">ops/s</text>

  <!-- markdown-it: 444 ops/s = 19.7% -->
  <text x="120" y="88" text-anchor="end" class="label">markdown-it</text>
  <rect x="130" y="75" width="79" height="20" rx="4" fill="url(#grayGrad)"/>
  <text x="216" y="88" class="value">444</text>
  <text x="244" y="88" class="unit">ops/s</text>

  <!-- marked: 309 ops/s = 13.7% -->
  <text x="120" y="118" text-anchor="end" class="label">marked</text>
  <rect x="130" y="105" width="55" height="20" rx="4" fill="url(#grayGrad)"/>
  <text x="192" y="118" class="value">309</text>
  <text x="220" y="118" class="unit">ops/s</text>

  <!-- micromark: 25 ops/s = 1.1% -->
  <text x="120" y="148" text-anchor="end" class="label">micromark</text>
  <rect x="130" y="135" width="5" height="20" rx="2" fill="url(#grayGrad)"/>
  <text x="142" y="148" class="value">25</text>
  <text x="160" y="148" class="unit">ops/s</text>

  <!-- remark: 19 ops/s = 0.8% -->
  <text x="120" y="178" text-anchor="end" class="label">remark</text>
  <rect x="130" y="165" width="4" height="20" rx="2" fill="url(#grayGrad)"/>
  <text x="141" y="178" class="value">19</text>
  <text x="159" y="178" class="unit">ops/s</text>

  <!-- Footer -->
  <text x="300" y="210" text-anchor="middle" class="unit">Higher is better. @ox-content/napi is 5-117x faster.</text>
</svg>
