<svg xmlns="http://www.w3.org/2000/svg" viewBox="0 0 600 220">
  <defs>
    <linearGradient id="oxGrad" x1="0%" y1="0%" x2="100%" y2="0%">
      <stop offset="0%" style="stop-color:#ff6b35"/>
      <stop offset="100%" style="stop-color:#f7931a"/>
    </linearGradient>
    <linearGradient id="grayGrad" x1="0%" y1="0%" x2="100%" y2="0%">
      <stop offset="0%" style="stop-color:#4a5568"/>
      <stop offset="100%" style="stop-color:#718096"/>
    </linearGradient>
  </defs>

  <style>
    .title { font: bold 14px system-ui, sans-serif; fill: #1a202c; }
    .label { font: 12px system-ui, sans-serif; fill: #4a5568; }
    .value { font: bold 11px system-ui, sans-serif; fill: #1a202c; }
    .unit { font: 10px system-ui, sans-serif; fill: #718096; }
  </style>

  <!-- Title -->
  <text x="300" y="24" text-anchor="middle" class="title">Parse + Render Speed (Large 48.7KB)</text>

  <!-- Bars - ox-content: 2,387 ops/s = 100% (width 400) -->
  <text x="120" y="58" text-anchor="end" class="label">@ox-content/napi</text>
  <rect x="130" y="45" width="400" height="20" rx="4" fill="url(#oxGrad)"/>
  <text x="540" y="58" class="value">2,387</text>
  <text x="580" y="58" class="unit">ops/s</text>

  <!-- markdown-it: 419 ops/s = 17.5% -->
  <text x="120" y="88" text-anchor="end" class="label">markdown-it</text>
  <rect x="130" y="75" width="70" height="20" rx="4" fill="url(#grayGrad)"/>
  <text x="208" y="88" class="value">419</text>
  <text x="236" y="88" class="unit">ops/s</text>

  <!-- marked: 294 ops/s = 12.3% -->
  <text x="120" y="118" text-anchor="end" class="label">marked</text>
  <rect x="130" y="105" width="49" height="20" rx="4" fill="url(#grayGrad)"/>
  <text x="186" y="118" class="value">294</text>
  <text x="214" y="118" class="unit">ops/s</text>

  <!-- micromark: 23 ops/s = 1.0% -->
  <text x="120" y="148" text-anchor="end" class="label">micromark</text>
  <rect x="130" y="135" width="4" height="20" rx="2" fill="url(#grayGrad)"/>
  <text x="141" y="148" class="value">23</text>
  <text x="159" y="148" class="unit">ops/s</text>

  <!-- remark: 19 ops/s = 0.8% -->
  <text x="120" y="178" text-anchor="end" class="label">remark</text>
  <rect x="130" y="165" width="3" height="20" rx="2" fill="url(#grayGrad)"/>
  <text x="140" y="178" class="value">19</text>
  <text x="158" y="178" class="unit">ops/s</text>

  <!-- Footer -->
  <text x="300" y="210" text-anchor="middle" class="unit">Higher is better. @ox-content/napi is 6-127x faster.</text>
</svg>
