<svg xmlns="http://www.w3.org/2000/svg" viewBox="0 0 1200 630" width="1200" height="630" fill="none">
  <defs>
    <linearGradient id="ogWordmarkGradient" x1="286" y1="10" x2="320" y2="54" gradientUnits="userSpaceOnUse">
      <stop offset="0%" stop-color="#355cff" />
      <stop offset="100%" stop-color="#74c7ff" />
    </linearGradient>
  </defs>

  <rect width="1200" height="630" fill="#0b1220" />
  <rect x="0.5" y="0.5" width="1199" height="629" stroke="#223252" />
  <rect width="1200" height="4" fill="#4f6fae" />

  <g transform="translate(64 56) scale(1.5926)">
    <text
      x="2"
      y="43"
      fill="#eff6ff"
      font-family="IBM Plex Sans, IBM Plex Mono, Avenir Next, Segoe UI, sans-serif"
      font-size="34"
      font-weight="700"
      letter-spacing="-1.4"
    >
      OXCONTENT
    </text>
    <text
      x="213"
      y="43.5"
      fill="#eff6ff"
      font-family="IBM Plex Sans, IBM Plex Mono, Avenir Next, Segoe UI, sans-serif"
      font-size="40"
      font-weight="400"
    >
      (
    </text>
    <g transform="translate(216 9) scale(0.089) rotate(-7 256 256)">
      <path
        d="M161 96H286C298 96 309 101 318 110L352 144C361 153 366 164 366 176V386C366 399 355 410 342 410H161C148 410 138 399 138 386V120C138 107 148 96 161 96Z"
        fill="url(#ogWordmarkGradient)"
      />
    </g>
    <text
      x="252"
      y="43.5"
      fill="#eff6ff"
      font-family="IBM Plex Sans, IBM Plex Mono, Avenir Next, Segoe UI, sans-serif"
      font-size="40"
      font-weight="400"
    >
      )
    </text>
  </g>

  <text
    x="64"
    y="300"
    fill="#eff6ff"
    font-family="IBM Plex Sans, Avenir Next, Segoe UI, sans-serif"
    font-size="76"
    font-weight="700"
    letter-spacing="-4"
  >
    cargo doc for JavaScript
  </text>
  <text
    x="64"
    y="382"
    fill="#93a4c3"
    font-family="IBM Plex Sans, Avenir Next, Segoe UI, sans-serif"
    font-size="30"
  >
    Rust-powered docs and high-performance Markdown tooling.
  </text>
</svg>
